<?xml version="1.0" encoding="UTF-8"?><svg id="a" xmlns="http://www.w3.org/2000/svg" viewBox="0 0 1000 1000"><defs><style>.b{fill:#39b54a;}</style></defs><path class="b" d="M500,639.03c-53.11,0-102.94-28.05-140.31-78.97-37.03-50.46-57.42-117.47-57.42-188.69s20.39-138.23,57.42-188.69c37.37-50.93,87.2-78.97,140.31-78.97s102.94,28.05,140.31,78.97c37.03,50.46,57.42,117.47,57.42,188.69s-20.39,138.23-57.42,188.69c-37.37,50.93-87.2,78.97-140.31,78.97ZM500,113.7c-103.51,0-187.73,115.59-187.73,257.66s84.22,257.66,187.73,257.66,187.73-115.59,187.73-257.66-84.21-257.66-187.73-257.66Z"/><path class="b" d="M28.93,1000v-24.32c0-84.99,33.1-164.88,93.19-224.98s139.99-93.19,224.98-93.19h305.81c84.99,0,164.88,33.09,224.98,93.19s93.19,139.99,93.19,224.98v24.32h10v-24.32c0-87.66-34.13-170.07-96.12-232.05s-144.39-96.12-232.05-96.12h-305.81c-87.66,0-170.07,34.14-232.05,96.12-61.98,61.98-96.12,144.39-96.12,232.05v24.32h10Z"/></svg>